%TF.GenerationSoftware,KiCad,Pcbnew,(7.0.0-0)*%
%TF.CreationDate,2023-02-24T10:49:41-08:00*%
%TF.ProjectId,mixpre-sled_power-board,6d697870-7265-42d7-936c-65645f706f77,rev?*%
%TF.SameCoordinates,Original*%
%TF.FileFunction,Legend,Bot*%
%TF.FilePolarity,Positive*%
%FSLAX46Y46*%
G04 Gerber Fmt 4.6, Leading zero omitted, Abs format (unit mm)*
G04 Created by KiCad (PCBNEW (7.0.0-0)) date 2023-02-24 10:49:41*
%MOMM*%
%LPD*%
G01*
G04 APERTURE LIST*
%ADD10C,0.150000*%
G04 APERTURE END LIST*
D10*
%TO.C,OUT_NEG1*%
X7617380Y-7793258D02*
X7617380Y-7983734D01*
X7617380Y-7983734D02*
X7665000Y-8078972D01*
X7665000Y-8078972D02*
X7760238Y-8174210D01*
X7760238Y-8174210D02*
X7950714Y-8221829D01*
X7950714Y-8221829D02*
X8284047Y-8221829D01*
X8284047Y-8221829D02*
X8474523Y-8174210D01*
X8474523Y-8174210D02*
X8569761Y-8078972D01*
X8569761Y-8078972D02*
X8617380Y-7983734D01*
X8617380Y-7983734D02*
X8617380Y-7793258D01*
X8617380Y-7793258D02*
X8569761Y-7698020D01*
X8569761Y-7698020D02*
X8474523Y-7602782D01*
X8474523Y-7602782D02*
X8284047Y-7555163D01*
X8284047Y-7555163D02*
X7950714Y-7555163D01*
X7950714Y-7555163D02*
X7760238Y-7602782D01*
X7760238Y-7602782D02*
X7665000Y-7698020D01*
X7665000Y-7698020D02*
X7617380Y-7793258D01*
X7617380Y-8650401D02*
X8426904Y-8650401D01*
X8426904Y-8650401D02*
X8522142Y-8698020D01*
X8522142Y-8698020D02*
X8569761Y-8745639D01*
X8569761Y-8745639D02*
X8617380Y-8840877D01*
X8617380Y-8840877D02*
X8617380Y-9031353D01*
X8617380Y-9031353D02*
X8569761Y-9126591D01*
X8569761Y-9126591D02*
X8522142Y-9174210D01*
X8522142Y-9174210D02*
X8426904Y-9221829D01*
X8426904Y-9221829D02*
X7617380Y-9221829D01*
X7617380Y-9555163D02*
X7617380Y-10126591D01*
X8617380Y-9840877D02*
X7617380Y-9840877D01*
X8236428Y-10459925D02*
X8236428Y-11221830D01*
%TO.C,OUT_POS1*%
X13617380Y-7880952D02*
X13617380Y-8071428D01*
X13617380Y-8071428D02*
X13665000Y-8166666D01*
X13665000Y-8166666D02*
X13760238Y-8261904D01*
X13760238Y-8261904D02*
X13950714Y-8309523D01*
X13950714Y-8309523D02*
X14284047Y-8309523D01*
X14284047Y-8309523D02*
X14474523Y-8261904D01*
X14474523Y-8261904D02*
X14569761Y-8166666D01*
X14569761Y-8166666D02*
X14617380Y-8071428D01*
X14617380Y-8071428D02*
X14617380Y-7880952D01*
X14617380Y-7880952D02*
X14569761Y-7785714D01*
X14569761Y-7785714D02*
X14474523Y-7690476D01*
X14474523Y-7690476D02*
X14284047Y-7642857D01*
X14284047Y-7642857D02*
X13950714Y-7642857D01*
X13950714Y-7642857D02*
X13760238Y-7690476D01*
X13760238Y-7690476D02*
X13665000Y-7785714D01*
X13665000Y-7785714D02*
X13617380Y-7880952D01*
X13617380Y-8738095D02*
X14426904Y-8738095D01*
X14426904Y-8738095D02*
X14522142Y-8785714D01*
X14522142Y-8785714D02*
X14569761Y-8833333D01*
X14569761Y-8833333D02*
X14617380Y-8928571D01*
X14617380Y-8928571D02*
X14617380Y-9119047D01*
X14617380Y-9119047D02*
X14569761Y-9214285D01*
X14569761Y-9214285D02*
X14522142Y-9261904D01*
X14522142Y-9261904D02*
X14426904Y-9309523D01*
X14426904Y-9309523D02*
X13617380Y-9309523D01*
X13617380Y-9642857D02*
X13617380Y-10214285D01*
X14617380Y-9928571D02*
X13617380Y-9928571D01*
X14236428Y-10547619D02*
X14236428Y-11309524D01*
X14617380Y-10928571D02*
X13855476Y-10928571D01*
%TO.C,S2*%
X5642856Y-1367380D02*
X5642856Y-367380D01*
X5166666Y-1367380D02*
X5166666Y-367380D01*
X5166666Y-367380D02*
X4595238Y-1367380D01*
X4595238Y-1367380D02*
X4595238Y-367380D01*
X4119047Y-986428D02*
X3357143Y-986428D01*
%TO.C,S1*%
X18642856Y-1367380D02*
X18642856Y-367380D01*
X18166666Y-1367380D02*
X18166666Y-367380D01*
X18166666Y-367380D02*
X17595238Y-1367380D01*
X17595238Y-1367380D02*
X17595238Y-367380D01*
X17119047Y-986428D02*
X16357143Y-986428D01*
X16738095Y-1367380D02*
X16738095Y-605476D01*
%TD*%
M02*
